<svg id="clock" xmlns="http://www.w3.org/2000/svg" width="145" height="145" viewBox="0 0 145 145">
  <path id="Path_68" data-name="Path 68" d="M145,72.5A72.5,72.5,0,0,1,21.234,123.765,72.5,72.5,0,0,1,123.764,21.234,72.025,72.025,0,0,1,145,72.5Zm0,0" transform="translate(0.001 0.001)" fill="#ceb567"/>
  <path id="Path_69" data-name="Path 69" d="M328.5,72.5A72.5,72.5,0,0,1,256,145V0a72.5,72.5,0,0,1,72.5,72.5Zm0,0" transform="translate(-183.5 0)" fill="#e8c657"/>
  <path id="Path_70" data-name="Path 70" d="M176.48,124.541A51.939,51.939,0,1,1,124.541,72.6,52,52,0,0,1,176.48,124.541Zm0,0" transform="translate(-52.041 -52.041)" fill="#fff"/>
  <path id="Path_71" data-name="Path 71" d="M307.939,124.54A52,52,0,0,1,256,176.479V72.6a52,52,0,0,1,51.939,51.939Zm0,0" transform="translate(-183.5 -52.04)" fill="#e2e2e2"/>
  <path id="Path_72" data-name="Path 72" d="M301.131,249.656H275.236a4.248,4.248,0,0,1,0-8.5h25.894a4.248,4.248,0,0,1,0,8.5Zm0,0" transform="translate(-194.243 -172.863)" fill="#ffbb10"/>
  <path id="Path_73" data-name="Path 73" d="M249.5,123.326v26.033a4.251,4.251,0,0,1-4.243,4.248h-.005A4.249,4.249,0,0,1,241,149.359V123.326a4.248,4.248,0,0,1,4.248-4.248h.005A4.249,4.249,0,0,1,249.5,123.326Zm0,0" transform="translate(-172.748 -85.355)" fill="#ffd60d"/>
  <path id="Path_74" data-name="Path 74" d="M260.262,123.326v26.033a4.251,4.251,0,0,1-4.242,4.248V119.078a4.249,4.249,0,0,1,4.242,4.248Zm0,0" transform="translate(-183.514 -85.355)" fill="#ffbb10"/>
  <g id="Group_28" data-name="Group 28" transform="translate(30.836 68.252)">
    <path id="Path_75" data-name="Path 75" d="M249.5,353.967v6.571a4.248,4.248,0,0,1-8.5,0v-6.571a4.248,4.248,0,0,1,8.5,0Zm0,0" transform="translate(-203.584 -318.929)" fill="#36f1ff"/>
    <path id="Path_76" data-name="Path 76" d="M119.7,249.5h-6.57a4.248,4.248,0,1,1,0-8.5h6.57a4.248,4.248,0,0,1,0,8.5Zm0,0" transform="translate(-108.883 -241)" fill="#36f1ff"/>
    <path id="Path_77" data-name="Path 77" d="M152.8,326.741a4.247,4.247,0,0,1-3-7.252l4.949-4.949a4.248,4.248,0,0,1,6.008,6.008L155.8,325.5a4.234,4.234,0,0,1-3,1.243Zm0,0" transform="translate(-137.316 -292.822)" fill="#36f1ff"/>
  </g>
  <path id="Path_78" data-name="Path 78" d="M319.193,161.061a4.248,4.248,0,0,1-3-7.251l4.666-4.666a4.248,4.248,0,0,1,6.007,6.007l-4.666,4.666A4.233,4.233,0,0,1,319.193,161.061Zm0,0" transform="translate(-225.751 -106.013)" fill="#05dbdb"/>
  <path id="Path_79" data-name="Path 79" d="M323.442,327.69a4.232,4.232,0,0,1-3-1.245l-5.233-5.233a4.248,4.248,0,1,1,6.007-6.007l5.233,5.233a4.248,4.248,0,0,1-3,7.252Zm0,0" transform="translate(-225.046 -225.047)" fill="#05dbdb"/>
  <path id="Path_80" data-name="Path 80" d="M158.477,162.727a4.237,4.237,0,0,1-3-1.243l-4.666-4.666a4.248,4.248,0,0,1,6.008-6.008l4.666,4.666a4.248,4.248,0,0,1-3,7.252Zm0,0" transform="translate(-107.206 -107.208)" fill="#36f1ff"/>
  <path id="Path_81" data-name="Path 81" d="M232.777,232.749a12.645,12.645,0,0,1-9.006,3.734h-.006a12.747,12.747,0,0,1-.006-25.495h.006a12.752,12.752,0,0,1,9.012,21.761Zm0,0" transform="translate(-151.265 -151.236)" fill="#36f1ff"/>
  <path id="Path_82" data-name="Path 82" d="M260.248,353.967v6.571A4.25,4.25,0,0,1,256,364.786V349.719A4.25,4.25,0,0,1,260.248,353.967Zm0,0" transform="translate(-183.5 -250.678)" fill="#05dbdb"/>
  <path id="Path_83" data-name="Path 83" d="M265.011,232.749a12.646,12.646,0,0,1-9.006,3.734H256V210.988a12.752,12.752,0,0,1,9.012,21.761Zm0,0" transform="translate(-183.5 -151.236)" fill="#05dbdb"/>
</svg>
