<svg xmlns="http://www.w3.org/2000/svg" width="72.733" height="43.355" viewBox="0 0 72.733 43.355">
  <g id="eye" transform="translate(0 -98.725)">
    <path id="Path_84" data-name="Path 84" d="M36.366,98.725c-13.9,0-26.5,7.6-35.8,19.952a2.879,2.879,0,0,0,0,3.437c9.3,12.364,21.9,19.967,35.8,19.967s26.5-7.6,35.8-19.952a2.879,2.879,0,0,0,0-3.437C62.865,106.328,50.263,98.725,36.366,98.725Zm1,36.943A15.3,15.3,0,1,1,51.632,121.4,15.307,15.307,0,0,1,37.363,135.668Zm-.461-7.052a8.237,8.237,0,1,1,7.692-7.692A8.224,8.224,0,0,1,36.9,128.616Z" transform="translate(0 0)" fill="#fff"/>
  </g>
</svg>
