<svg id="facebook" xmlns="http://www.w3.org/2000/svg" width="50" height="50" viewBox="0 0 50 50">
  <path id="Path_19" data-name="Path 19" d="M291.639,508.668q-.39.064-.784.117Q291.248,508.732,291.639,508.668Zm0,0" transform="translate(-262.541 -459.075)" fill="#1c1c1c"/>
  <path id="Path_20" data-name="Path 20" d="M299.713,507.793c-.124.023-.249.044-.373.065C299.464,507.837,299.588,507.816,299.713,507.793Zm0,0" transform="translate(-270.151 -458.306)" fill="#1c1c1c"/>
  <path id="Path_21" data-name="Path 21" d="M278.528,510.34q-.457.051-.919.091Q278.071,510.392,278.528,510.34Zm0,0" transform="translate(-250.6 -460.543)" fill="#1c1c1c"/>
  <path id="Path_22" data-name="Path 22" d="M286.886,509.738c-.146.02-.294.038-.44.055C286.592,509.776,286.74,509.758,286.886,509.738Zm0,0" transform="translate(-258.522 -460.014)" fill="#1c1c1c"/>
  <path id="Path_23" data-name="Path 23" d="M306.994,506.41l-.33.069Zm0,0" transform="translate(-276.756 -457.092)" fill="#1c1c1c"/>
  <path id="Path_24" data-name="Path 24" d="M324.75,502.113l-.266.074Zm0,0" transform="translate(-292.83 -453.32)" fill="#1c1c1c"/>
  <path id="Path_25" data-name="Path 25" d="M319.349,503.543l-.29.075Zm0,0" transform="translate(-287.937 -454.575)" fill="#1c1c1c"/>
  <path id="Path_26" data-name="Path 26" d="M312.375,505.254l-.308.069Zm0,0" transform="translate(-281.629 -456.077)" fill="#1c1c1c"/>
  <path id="Path_27" data-name="Path 27" d="M273.974,511.09q-.247.021-.494.037Q273.728,511.111,273.974,511.09Zm0,0" transform="translate(-246.826 -461.201)" fill="#1c1c1c"/>
  <path id="Path_28" data-name="Path 28" d="M50,25A25,25,0,1,0,25,50c.147,0,.293,0,.439-.006V30.533H20.068v-6.26h5.371V19.667c0-5.342,3.261-8.25,8.027-8.25a44.214,44.214,0,0,1,4.815.246v5.583H35c-2.592,0-3.094,1.232-3.094,3.04v3.987h6.2l-.808,6.26H31.9v18.5A25.013,25.013,0,0,0,50,25Zm0,0" fill="#1c1c1c"/>
  <path id="Path_29" data-name="Path 29" d="M265.87,511.43q-.488.031-.979.049Q265.382,511.462,265.87,511.43Zm0,0" transform="translate(-239.125 -461.5)" fill="#1c1c1c"/>
  <path id="Path_30" data-name="Path 30" d="M261.023,511.836q-.259.009-.519.013Q260.764,511.845,261.023,511.836Zm0,0" transform="translate(-235.117 -461.856)" fill="#1c1c1c"/>
</svg>
