<svg xmlns="http://www.w3.org/2000/svg" xmlns:xlink="http://www.w3.org/1999/xlink" width="50" height="50" viewBox="0 0 50 50">
  <defs>
    <clipPath id="clip-path">
      <rect id="Rectangle_402" data-name="Rectangle 402" width="50" height="50" transform="translate(925 1249)" fill="#fff"/>
    </clipPath>
  </defs>
  <g id="Mask_Group_3" data-name="Mask Group 3" transform="translate(-925 -1249)" clip-path="url(#clip-path)">
    <g id="restaurant-cutlery-symbol-of-a-cross" transform="translate(924.999 1249)">
      <path id="Path_16" data-name="Path 16" d="M48.449,45.718a2.415,2.415,0,1,1-3.413,3.414q-9.822-10.547-19.64-21.1l-.744-.794Q14.378,38.269,4.109,49.306a2.543,2.543,0,0,1-3.449.038A2.548,2.548,0,0,1,.7,45.889q11.07-10.3,22.133-20.6s-3.571-3.852-5.111-5.506c-3.6,2.583-8.943,1.6-12.153-2.362C2.112,13.241-.866,5.763,2.017,2.7c3.066-2.884,10.539.1,14.72,3.549C20.7,9.463,21.687,14.8,19.1,18.4q2.783,2.593,5.569,5.181l-.011.009s.116.091.011-.009q2.6-2.425,5.209-4.849c-1.467-2.5-.492-6.017,1.89-8.021C34.5,8.422,44.621-.269,44.893.007S38.065,6.986,33.321,11.743l.791.79C39.176,8.1,46.323,1.44,46.6,1.711s-6.607,7.2-11.2,12.117l.786.783C41.1,10.019,48.028,3.14,48.3,3.41S41.912,10.832,37.475,15.9l.786.784C43.016,11.937,49.721,4.837,50,5.106s-10.687,13.117-10.7,13.136c0,0,2.327-2.736-.009-.007-2.229,2.608-5.558,3.4-8.019,1.894q-2.4,2.572-4.788,5.143C26.338,25.14,41.127,38.9,48.449,45.718Z" fill="#dcbe5b"/>
    </g>
  </g>
</svg>
