<svg id="instagram" xmlns="http://www.w3.org/2000/svg" width="50" height="50" viewBox="0 0 50 50">
  <path id="Path_31" data-name="Path 31" d="M216.437,211.718A4.718,4.718,0,1,1,211.718,207,4.718,4.718,0,0,1,216.437,211.718Zm0,0" transform="translate(-186.718 -186.718)" fill="#1c1c1c"/>
  <path id="Path_32" data-name="Path 32" d="M158.124,138.745a4.687,4.687,0,0,0-2.686-2.686,7.832,7.832,0,0,0-2.628-.487c-1.493-.068-1.941-.083-5.72-.083s-4.227.014-5.72.082a7.836,7.836,0,0,0-2.628.487,4.689,4.689,0,0,0-2.687,2.686,7.834,7.834,0,0,0-.487,2.628c-.068,1.493-.083,1.94-.083,5.72s.015,4.227.083,5.72a7.831,7.831,0,0,0,.487,2.628,4.687,4.687,0,0,0,2.686,2.686,7.821,7.821,0,0,0,2.628.487c1.493.068,1.94.082,5.72.082s4.228-.014,5.72-.082a7.821,7.821,0,0,0,2.628-.487,4.687,4.687,0,0,0,2.686-2.686,7.839,7.839,0,0,0,.487-2.628c.068-1.493.082-1.941.082-5.72s-.014-4.227-.082-5.72A7.823,7.823,0,0,0,158.124,138.745Zm-11.034,15.617a7.269,7.269,0,1,1,7.269-7.269A7.269,7.269,0,0,1,147.089,154.362Zm7.556-13.126a1.7,1.7,0,1,1,1.7-1.7A1.7,1.7,0,0,1,154.645,141.236Zm0,0" transform="translate(-122.09 -122.093)" fill="#1c1c1c"/>
  <path id="Path_33" data-name="Path 33" d="M25,0A25,25,0,1,0,50,25,25,25,0,0,0,25,0ZM39.269,30.918A10.532,10.532,0,0,1,38.6,34.4a7.34,7.34,0,0,1-4.2,4.2,10.54,10.54,0,0,1-3.484.667c-1.531.07-2.02.087-5.918.087s-4.388-.017-5.919-.087A10.54,10.54,0,0,1,15.6,38.6a7.34,7.34,0,0,1-4.2-4.2,10.53,10.53,0,0,1-.667-3.484c-.071-1.531-.087-2.02-.087-5.919s.016-4.388.087-5.918A10.533,10.533,0,0,1,11.4,15.6a7.345,7.345,0,0,1,4.2-4.2,10.542,10.542,0,0,1,3.485-.667c1.531-.07,2.02-.087,5.918-.087s4.388.017,5.918.087A10.544,10.544,0,0,1,34.4,11.4a7.342,7.342,0,0,1,4.2,4.2,10.531,10.531,0,0,1,.668,3.485c.07,1.531.086,2.02.086,5.918S39.339,29.387,39.269,30.918Zm0,0" fill="#1c1c1c"/>
</svg>
