<svg xmlns="http://www.w3.org/2000/svg" xmlns:xlink="http://www.w3.org/1999/xlink" width="400" height="396" viewBox="0 0 400 396">
  <defs>
    <clipPath id="clip-path">
      <rect id="Rectangle_399" data-name="Rectangle 399" width="400" height="396" fill="#fff"/>
    </clipPath>
  </defs>
  <g id="logo" clip-path="url(#clip-path)">
    <g id="table_1_" data-name="table (1)" transform="translate(0 18.973)">
      <path id="Path_4" data-name="Path 4" d="M75.541,55.005A12.712,12.712,0,0,0,88.316,42.357V21.277H62.766v21.08A12.712,12.712,0,0,0,75.541,55.005Z" transform="translate(188.482 44.072)" fill="#99d9ff"/>
      <path id="Path_5" data-name="Path 5" d="M43.626,55.005A12.712,12.712,0,0,0,56.4,42.357V21.277H30.851v21.08A12.712,12.712,0,0,0,43.626,55.005Z" transform="translate(92.644 44.072)" fill="#ccecff"/>
      <path id="Path_6" data-name="Path 6" d="M62.778,17.021A16.949,16.949,0,0,0,45.745,33.886v67.457H79.812V33.886A16.949,16.949,0,0,0,62.778,17.021Z" transform="translate(137.368 31.463)" fill="#668a30"/>
      <path id="Path_7" data-name="Path 7" d="M6.383,59.574v25.3H35.637l1.111-25.3Z" transform="translate(19.168 157.552)" fill="#fd7555"/>
      <path id="Path_8" data-name="Path 8" d="M97.287,59.574H14.8l-1.111,25.3h83.6Z" transform="translate(41.114 157.552)" fill="#ef431d"/>
      <path id="Path_9" data-name="Path 9" d="M116.4,59.574v25.3H87.142l-1.111-25.3Z" transform="translate(258.346 157.552)" fill="#fd7555"/>
      <path id="Path_10" data-name="Path 10" d="M65.425,59.574h82.486l1.111,25.3h-83.6Z" transform="translate(196.467 157.552)" fill="#ef431d"/>
      <path id="Path_11" data-name="Path 11" d="M22.657,44.681l-2.21,50.325L236.437,207.57c6.337,3.154,13.692,5.752,25.8,5.752L254.834,44.681Z" transform="translate(61.401 113.421)" fill="#ffe99f"/>
      <path id="Path_12" data-name="Path 12" d="M24.333,57.447,19.149,175.5c30.874,0,30.874-16.864,61.749-16.864S111.772,175.5,142.647,175.5s30.873-16.864,61.746-16.864c18.761,0,26.125,6.225,35.941,11.112L235.4,57.447H24.333Z" transform="translate(57.503 151.247)" fill="#dcbe5b"/>
      <path id="Path_13" data-name="Path 13" d="M267.8,38.3H20.816L18.594,88.89H270.026Z" transform="translate(55.836 94.507)" fill="#fff"/>
      <path id="Path_14" data-name="Path 14" d="M394.853,89.178a6.377,6.377,0,0,0-7.265,5.316L369.241,215.59h-44.3l-.926-21.08h1.845a6.42,6.42,0,0,0,4.614-1.95,6.292,6.292,0,0,0,1.768-4.649l-2.221-50.593a6.36,6.36,0,0,0-6.382-6.049H270.41V109.1a19.017,19.017,0,0,0,12.775-17.884V70.136a6.356,6.356,0,0,0-6.388-6.324H251.247a6.356,6.356,0,0,0-6.388,6.324v21.08A19.017,19.017,0,0,0,257.635,109.1v22.168H223.568V70.136a23.262,23.262,0,0,0-17.034-22.3V11.111a6.388,6.388,0,0,0-12.775,0v36.72a23.262,23.262,0,0,0-17.034,22.3v61.133H142.658V109.1a19.017,19.017,0,0,0,12.775-17.884V70.136a6.356,6.356,0,0,0-6.388-6.324H123.495a6.356,6.356,0,0,0-6.388,6.324v21.08A19.017,19.017,0,0,0,129.883,109.1v22.168H76.652a6.36,6.36,0,0,0-6.382,6.049L68.049,187.91a6.292,6.292,0,0,0,1.768,4.649,6.418,6.418,0,0,0,4.614,1.95h1.846l-.926,21.08h-44.3L12.705,94.495A6.375,6.375,0,0,0,5.44,89.178,6.334,6.334,0,0,0,.071,96.37L19.164,222.385V356.826a6.388,6.388,0,0,0,12.775,0V253.533H73.684l-3.414,77.722a6.292,6.292,0,0,0,1.768,4.649,6.418,6.418,0,0,0,4.614,1.95,65.028,65.028,0,0,0,19.163-2.6v21.575a6.388,6.388,0,0,0,12.775,0V329.732q1.025-.552,2.022-1.1c6.242-3.409,11.792-6.424,21.4-7.349v35.54a6.388,6.388,0,0,0,12.775,0v-35.54c9.61.924,15.159,3.939,21.4,7.349,7.911,4.321,16.878,9.219,33.96,9.219s26.048-4.9,33.959-9.22c6.24-3.408,11.789-6.424,21.4-7.348v35.54a6.388,6.388,0,0,0,12.775,0v-35.54c9.611.923,15.161,3.939,21.4,7.349q.994.543,2.019,1.1v27.1a6.388,6.388,0,0,0,12.775,0V335.251a65,65,0,0,0,19.163,2.6,6.42,6.42,0,0,0,4.614-1.95,6.292,6.292,0,0,0,1.768-4.649l-3.413-77.722h41.744V356.827a6.388,6.388,0,0,0,12.775,0V222.386L400.222,96.371A6.334,6.334,0,0,0,394.853,89.178ZM257.635,76.46H270.41V91.216a6.388,6.388,0,0,1-12.775,0Zm-127.753,0h12.775V91.216a6.388,6.388,0,0,1-12.775,0ZM189.5,70.136a10.647,10.647,0,0,1,21.292,0v61.133H189.5ZM31.939,240.886V228.238H74.795l-.555,12.648Zm263.916,76.676c-7.91-4.321-16.876-9.22-33.958-9.22s-26.049,4.9-33.959,9.22c-7.51,4.1-14,7.645-27.787,7.645s-20.279-3.543-27.789-7.645c-7.911-4.321-16.878-9.22-33.961-9.22s-26.049,4.9-33.96,9.22c-1.779.971-3.5,1.91-5.278,2.779a44.063,44.063,0,0,1-15.826,4.549l5.726-130.38h177.16a6.324,6.324,0,1,0,0-12.648H81.1l1.667-37.944H317.525l1.667,37.944H291.774a6.324,6.324,0,1,0,0,12.648h19.457l5.726,130.38C307.521,323.934,302.034,320.937,295.854,317.562Zm30.2-76.676-.555-12.648h42.856v12.648Z" transform="translate(0 -4.787)"/>
    </g>
  </g>
</svg>
