<svg xmlns="http://www.w3.org/2000/svg" xmlns:xlink="http://www.w3.org/1999/xlink" width="100" height="100" viewBox="0 0 100 100">
  <defs>
    <clipPath id="clip-path">
      <rect id="Rectangle_402" data-name="Rectangle 402" width="100" height="100" transform="translate(925 1249)" fill="#fff"/>
    </clipPath>
  </defs>
  <g id="Mask_Group_3" data-name="Mask Group 3" transform="translate(-925 -1249)" clip-path="url(#clip-path)">
    <g id="restaurant-cutlery-symbol-of-a-cross" transform="translate(925.001 1249)">
      <path id="Path_16" data-name="Path 16" d="M97.134,91.66a4.841,4.841,0,1,1-6.843,6.846Q70.6,77.36,50.915,56.2l-1.493-1.593Q28.825,76.726,8.237,98.853a5.1,5.1,0,0,1-6.915.076A5.109,5.109,0,0,1,1.393,92Q23.588,71.359,45.769,50.7s-7.16-7.723-10.247-11.038c-7.224,5.179-17.931,3.21-24.366-4.736C4.233,26.547-1.737,11.555,4.042,5.415c6.146-5.783,21.13.2,29.512,7.115,7.944,6.442,9.924,17.133,4.734,24.362q5.58,5.2,11.165,10.388l-.022.018s.232.183.022-.018q5.219-4.862,10.443-9.722c-2.941-5.021-.987-12.063,3.789-16.082C69.164,16.886,89.46-.539,90.006.013S76.315,14.005,66.8,23.544l1.586,1.584c10.152-8.9,24.482-22.241,25.035-21.7S80.18,17.866,70.979,27.723l1.575,1.571C82.4,20.087,96.29,6.3,96.829,6.836s-12.8,14.881-21.7,25.032l1.575,1.573c9.534-9.51,22.979-23.745,23.529-23.206S78.81,36.534,78.778,36.572c0,0,4.665-5.485-.018-.013-4.469,5.228-11.143,6.81-16.077,3.8q-4.805,5.156-9.6,10.312C52.8,50.4,82.454,78,97.134,91.66Z" transform="translate(-0.001 0)" fill="#dcbe5b"/>
    </g>
  </g>
</svg>
