<svg xmlns="http://www.w3.org/2000/svg" width="50" height="50" viewBox="0 0 50 50">
  <path id="twitter" d="M25,0A25,25,0,1,0,50,25,25,25,0,0,0,25,0ZM36.415,19.492q.017.369.016.742c0,7.582-5.772,16.326-16.327,16.327h0a16.242,16.242,0,0,1-8.8-2.578,11.671,11.671,0,0,0,1.369.079A11.514,11.514,0,0,0,19.8,31.606a5.745,5.745,0,0,1-5.361-3.986,5.719,5.719,0,0,0,2.592-.1,5.74,5.74,0,0,1-4.6-5.625c0-.026,0-.049,0-.073a5.7,5.7,0,0,0,2.6.718,5.743,5.743,0,0,1-1.777-7.661,16.291,16.291,0,0,0,11.828,6,5.741,5.741,0,0,1,9.778-5.233,11.509,11.509,0,0,0,3.644-1.393,5.761,5.761,0,0,1-2.523,3.174,11.444,11.444,0,0,0,3.3-.9,11.661,11.661,0,0,1-2.862,2.972Zm0,0" fill="#1c1c1c"/>
</svg>
